{"title":"Primus - Animals Should Not Try To Act Like People WAV","uid":4747011,"size":299694674,"categoryP":"audio","categoryS":"music","magnet":"?xt=urn:btih:76bb05f4bfec79e50f5af182237b1e4d00b8fccf&amp;dn=Primus+-+Animals+Should+Not+Try+To+Act+Like+People+WAV&amp;tr=udp%3A%2F%2Ftracker.openbittorrent.com%3A80&amp;tr=udp%3A%2F%2Fopen.demonii.com%3A1337&amp;tr=udp%3A%2F%2Ftracker.coppersurfer.tk%3A6969&amp;tr=udp%3A%2F%2Fexodus.desync.com%3A6969","seeders":0,"leechers":1,"uploader":null,"files":6,"time":1235934071,"description":"REM GENRE &quot;Alt. Rock&quot;\nREM DISCID 3E06A205\nREM COMMENT &quot;ExactAudioCopy v0.99pb3&quot;\nPERFORMER &quot;Primus&quot;\nTITLE &quot;Animals Should Not Try To Act Like People&quot;\nFILE &quot;Primus - Animals Should Not Try To Act Like People.wav&quot; WAVE\n  TRACK 01 AUDIO\n    TITLE &quot;The Carpenter and the Dainty Bride&quot;\n    PERFORMER &quot;Primus&quot;\n    INDEX 01 00:00:00\n  TRACK 02 AUDIO\n    TITLE &quot;Pilcher's Squad&quot;\n    PERFORMER &quot;Primus&quot;\n    INDEX 01 06:35:40\n  TRACK 03 AUDIO\n    TITLE &quot;Mary The Ice Cube&quot;\n    PERFORMER &quot;Primus&quot;\n    INDEX 00 08:29:17\n    INDEX 01 08:29:61\n  TRACK 04 AUDIO\n    TITLE &quot;The Last Superpower aka Rapscallion&quot;\n    PERFORMER &quot;Primus&quot;\n    INDEX 00 13:06:56\n    INDEX 01 13:07:06\n  TRACK 05 AUDIO\n    TITLE &quot;My Friend Fats&quot;\n    PERFORMER &quot;Primus&quot;\n    INDEX 00 20:22:15\n    INDEX 01 20:23:15\n","torrent":{"xt":"urn:btih:76bb05f4bfec79e50f5af182237b1e4d00b8fccf","amp;dn":"Primus+-+Animals+Should+Not+Try+To+Act+Like+People+WAV","amp;tr":["udp%3A%2F%2Ftracker.openbittorrent.com%3A80","udp%3A%2F%2Fopen.demonii.com%3A1337","udp%3A%2F%2Ftracker.coppersurfer.tk%3A6969","udp%3A%2F%2Fexodus.desync.com%3A6969"],"infoHash":"76bb05f4bfec79e50f5af182237b1e4d00b8fccf","infoHashBuffer":{"type":"Buffer","data":[118,187,5,244,191,236,121,229,15,90,241,130,35,123,30,77,0,184,252,207]},"announce":[],"urlList":[]}}